<svg width="32" height="32" viewBox="0 0 32 32" fill="none" xmlns="http://www.w3.org/2000/svg">
<path d="M19 13.5H23" stroke="black" stroke-width="2" stroke-linecap="round" stroke-linejoin="round"/>
<path d="M9 13.5H13" stroke="black" stroke-width="2" stroke-linecap="round" stroke-linejoin="round"/>
<path d="M11 11.5V15.5" stroke="black" stroke-width="2" stroke-linecap="round" stroke-linejoin="round"/>
<path d="M21.5001 6.9624L10.5001 6.9999C8.97224 7.00281 7.49407 7.54278 6.32412 8.52535C5.15417 9.50793 4.36691 10.8706 4.10006 12.3749V12.3749L2.05006 22.8874C1.91843 23.6215 2.02475 24.3785 2.35352 25.0479C2.68228 25.7174 3.2163 26.2643 3.87771 26.609C4.53911 26.9536 5.29333 27.078 6.03038 26.9639C6.76742 26.8499 7.44877 26.5034 7.97506 25.9749V25.9749L13.3751 19.9999L21.5001 19.9624C23.224 19.9624 24.8773 19.2776 26.0963 18.0586C27.3152 16.8396 28.0001 15.1863 28.0001 13.4624C28.0001 11.7385 27.3152 10.0852 26.0963 8.86621C24.8773 7.64722 23.224 6.9624 21.5001 6.9624V6.9624Z" stroke="black" stroke-width="2" stroke-linecap="round" stroke-linejoin="round"/>
<path d="M27.9 12.3374L29.95 22.8874C30.0816 23.6215 29.9753 24.3785 29.6465 25.0479C29.3178 25.7174 28.7838 26.2643 28.1224 26.609C27.4609 26.9536 26.7067 27.078 25.9697 26.9639C25.2326 26.8499 24.5513 26.5034 24.025 25.9749V25.9749L18.625 19.9749" stroke="black" stroke-width="2" stroke-linecap="round" stroke-linejoin="round"/>
</svg>
