<svg width="32" height="32" viewBox="0 0 32 32" fill="none" xmlns="http://www.w3.org/2000/svg">
<path d="M25 22V8.00003C25.0017 7.6056 24.9252 7.21475 24.775 6.85002C24.6248 6.4853 24.4039 6.15392 24.125 5.87502C23.8461 5.59611 23.5147 5.3752 23.15 5.22502C22.7853 5.07484 22.3944 4.99837 22 5.00003H5" stroke="black" stroke-width="2" stroke-linecap="round" stroke-linejoin="round"/>
<path d="M13 13H21" stroke="black" stroke-width="2" stroke-linecap="round" stroke-linejoin="round"/>
<path d="M13 17H21" stroke="black" stroke-width="2" stroke-linecap="round" stroke-linejoin="round"/>
<path d="M2.7625 9.99986C2.43867 9.63729 2.20781 9.20145 2.08977 8.72987C1.97174 8.25828 1.97007 7.76508 2.08492 7.29271C2.19977 6.82034 2.42769 6.38296 2.74907 6.01821C3.07044 5.65346 3.47564 5.37227 3.92979 5.19885C4.38394 5.02543 4.87342 4.96497 5.35612 5.02268C5.83881 5.08038 6.30025 5.25453 6.70072 5.53012C7.10118 5.80571 7.42868 6.17449 7.65501 6.60472C7.88135 7.03495 7.99974 7.51373 8 7.99986V23.9999C8.00026 24.486 8.11865 24.9648 8.34499 25.395C8.57132 25.8252 8.89882 26.194 9.29928 26.4696C9.69975 26.7452 10.1612 26.9193 10.6439 26.977C11.1266 27.0348 11.6161 26.9743 12.0702 26.8009C12.5244 26.6275 12.9296 26.3463 13.2509 25.9815C13.5723 25.6168 13.8002 25.1794 13.9151 24.707C14.0299 24.2346 14.0283 23.7414 13.9102 23.2699C13.7922 22.7983 13.5613 22.3624 13.2375 21.9999H27.2375C27.6237 22.4316 27.8766 22.9659 27.9657 23.5383C28.0548 24.1106 27.9764 24.6965 27.7398 25.2253C27.5031 25.754 27.1185 26.2029 26.6324 26.5178C26.1462 26.8327 25.5792 27.0001 25 26.9999H11" stroke="black" stroke-width="2" stroke-linecap="round" stroke-linejoin="round"/>
</svg>
